<svg viewBox="0 0 200 49" fill="none" xmlns="http://www.w3.org/2000/svg"><path fill-rule="evenodd" clip-rule="evenodd" d="M49.144.204H36.381l-8.014 48.78h12.75L49.143.204Zm14.278 38.805c1.355-4.917 2.303-8.065 2.856-9.443L77.468.204h8.013l-18.766 48.78H56.72L54.316.204h7.65l1.325 29.362c.073 1.002.102 2.474.102 4.432-.029 2.302-.087 3.962-.16 5.01h.19ZM191.58 36.8h-11.991L174.954 49h-16.828l-3.453-18.714h-3.089l-3.074 18.698h-7.911l8.013-48.78h9.296c8.785 0 13.739 2.364 12.603 13.123-.627 5.92-3.512 12.324-8.159 14.156l4.837 20.812L186.523.015h10.621L200 48.986h-8.057l-.364-12.184Zm-.292-8.112-.626-20.123v-1.19l-8.014 21.329 8.64-.016Zm-38.391-6.515h2.01c4.328 0 6.12-2.818 6.834-6.686.801-4.448.262-7.674-4.561-7.674h-1.923l-.35 2.146-1.5 9.082-.51 3.132Zm-25.148 14.627h-11.991L111.124 49h-8.042l19.625-49h10.621l2.842 48.984h-8.058l-.364-12.183Zm-.277-8.112-.626-20.123v-1.19l-8.014 21.329 8.64-.016Zm-26.225 20.295h-19.83L89.43.204h19.844l-1.268 7.736H96.103l-1.894 11.666h11.043l-1.296 7.862H92.868l-2.244 13.608h11.918l-1.296 7.908ZM15.561 31.946H2.797L0 48.984h12.763l2.798-17.038Zm16.42-14.282H19.218l-5.143 31.32h12.763l5.143-31.32Z" fill="#B81521"/></svg>